<?xml version="1.0" ?>
<!-- Uploaded to: SVG Repo, www.svgrepo.com, Generator: SVG Repo Mixer Tools -->
<svg width="800px" height="800px" viewBox="0 0 512 512" id="Layer_1" version="1.1" xml:space="preserve" xmlns="http://www.w3.org/2000/svg" xmlns:xlink="http://www.w3.org/1999/xlink">
<style type="text/css">
	.st0{fill:#232020;}
</style>
<g>
<path class="st0" d="M453.1,304.7l-52.4-116.4l-56.8,25.5l3.8,8.5c-12.1,3.9-25.4,4.8-38.9,2.6c-8.8-1.4-17.7-1.4-26.4,0   c-6.9,1.1-13.8,3.2-20.3,6.1c-3,1.3-5.9,2.9-8.8,4.7l-25.3,12.4c-3.9-0.7-7.8-1.2-11.7-1.4c-13.8-0.6-26.8-4.2-38-10.5l5.4-7.4   L133,192.3L58.4,295.9l50.5,36.4l5.4-7.4c9.6,8.6,17.1,19.8,22,32.7c0.4,1.1,0.8,2.1,1.3,3.2l-6.4,8.8c-6.4,8.9-4.4,21.4,4.5,27.8   c2.8,2,6.1,3.3,9.4,3.6c0,1,0.1,2,0.2,3c0.9,5.2,3.7,9.8,8,13c3.4,2.5,7.5,3.8,11.6,3.8c0.6,0,1.1,0,1.7-0.1   c1.1,4.4,3.7,8.5,7.7,11.4c3.5,2.5,7.6,3.8,11.6,3.8c2.1,0,4.2-0.3,6.2-1c1.4,3.1,3.6,5.8,6.4,7.8c3.4,2.5,7.5,3.8,11.6,3.8   c1.1,0,2.2-0.1,3.2-0.3c5.3-0.9,9.9-3.7,13-8l4-5.6l19.1,11c3.4,2,7.2,2.9,10.8,2.9c5.9,0,11.6-2.4,15.6-7c2.2-2.6,3.8-5.6,4.6-8.9   c3.9,1.3,8,1.6,12.2,0.9c6.8-1.1,12.7-4.8,16.7-10.4c2.6-3.7,4.3-8,4.7-12.4c0.2-2,0.2-4-0.1-5.9c7-0.4,13.7-3.5,18.3-9.1   c3.9-4.7,5.9-10.4,5.9-16.4c1.4,0.1,2.9,0,4.4-0.3c5.5-0.9,10.3-3.9,13.5-8.4c2.7-3.8,4.4-8.2,4.9-12.9c0-0.2,0-0.5,0.1-0.7   c1.4-1.8,2.7-3.7,3.9-5.6c7.3-11.6,16.8-20.9,27.7-27.4l3.7,8.1L453.1,304.7z M434.6,297.6l-31.2,14l-40.9-90.9l31.2-14   L434.6,297.6z M136.2,211.9l27.8,20l-56,77.6l-2.3,3.2l-27.8-20L136.2,211.9z M142.6,377.8l8.7-12.1l0.5-0.7   c0.9-1.3,2.3-2.1,3.8-2.4c0.3,0,0.6-0.1,0.8-0.1c0.1,0,0.1,0,0.2,0c0.3,0,0.5,0,0.8,0.1c0.1,0,0.1,0,0.2,0c0.2,0,0.4,0.1,0.7,0.2   c0,0,0.1,0,0.2,0c0.2,0.1,0.5,0.2,0.7,0.3c0.1,0,0.1,0.1,0.2,0.1c0.2,0.1,0.5,0.3,0.7,0.4c0.6,0.5,1.2,1,1.6,1.7   c0.5,0.9,0.8,1.9,0.9,2.9c0,0.3,0,0.5,0,0.8v0c0,0.3-0.1,0.6-0.2,0.8c-0.1,0.5-0.3,0.9-0.5,1.3c-0.1,0.2-0.3,0.4-0.4,0.7l0,0   c0,0,0,0,0,0l-9.2,12.8c-0.9,1.3-2.3,2.1-3.8,2.4c-1.6,0.3-3.1-0.1-4.4-1C141.3,384.1,140.7,380.4,142.6,377.8z M161.6,405.7   c-1.3-0.9-2.1-2.3-2.4-3.8c-0.3-1.6,0.1-3.1,1-4.4l20.6-28.6c0.9-1.3,2.3-2.1,3.8-2.4c0.3,0,0.6-0.1,0.9-0.1c0.1,0,0.1,0,0.2,0   c0.3,0,0.5,0,0.8,0.1c0.1,0,0.1,0,0.1,0c0.2,0,0.5,0.1,0.7,0.2c0,0,0.1,0,0.1,0c0.3,0.1,0.5,0.2,0.7,0.3c0.1,0,0.1,0.1,0.2,0.1   c0.2,0.1,0.5,0.3,0.7,0.4c1.7,1.2,2.6,3.3,2.4,5.4c0,0.3-0.1,0.5-0.1,0.8c0,0.1-0.1,0.2-0.1,0.3c0,0.1-0.1,0.3-0.1,0.4   c0,0.1-0.1,0.2-0.1,0.3c-0.1,0.1-0.1,0.3-0.2,0.4c-0.1,0.1-0.2,0.2-0.2,0.4c-0.1,0.1-0.1,0.2-0.2,0.3c0,0,0,0,0,0l0,0c0,0,0,0,0,0   l-20.6,28.6c-0.9,1.3-2.3,2.1-3.8,2.4C164.4,407,162.8,406.6,161.6,405.7z M182.5,420.8c-2.6-1.9-3.2-5.6-1.3-8.2l20.6-28.6   c0,0,0,0,0,0c0,0,0,0,0,0c0.2-0.3,0.4-0.5,0.7-0.8c0.1-0.1,0.1-0.1,0.2-0.2c0.2-0.2,0.5-0.4,0.8-0.6c0.1,0,0.1-0.1,0.2-0.1   c0.3-0.1,0.5-0.3,0.8-0.4c0.1,0,0.1,0,0.1-0.1c0.3-0.1,0.6-0.2,1-0.3c0.1,0,0.2,0,0.3-0.1c0.1,0,0.1,0,0.2,0c0.2,0,0.4,0,0.5,0   c0,0,0.1,0,0.1,0c0.3,0,0.6,0,0.9,0.1c0,0,0,0,0,0c0.3,0,0.6,0.1,0.8,0.2c0,0,0,0,0.1,0c0.3,0.1,0.5,0.2,0.8,0.3c0,0,0.1,0,0.1,0.1   c0.2,0.1,0.5,0.3,0.7,0.4c1.1,0.8,1.8,1.9,2.2,3.1c0.2,0.7,0.3,1.5,0.2,2.3c-0.1,1-0.5,2-1.1,2.9l-20.6,28.6   C188.8,422.1,185.2,422.7,182.5,420.8z M211.1,432.3c-1.6,0.3-3.1-0.1-4.4-1c-1.3-0.9-2.1-2.3-2.4-3.8c-0.3-1.6,0.1-3.1,1-4.4   l9.2-12.8c0.2-0.2,0.3-0.4,0.5-0.6c0.1-0.1,0.2-0.2,0.3-0.3c0.2-0.2,0.4-0.3,0.6-0.5c0.1-0.1,0.2-0.2,0.3-0.2   c0.2-0.1,0.5-0.2,0.7-0.3c0.1-0.1,0.2-0.1,0.3-0.2c0.4-0.1,0.7-0.2,1.1-0.3c0.3,0,0.6-0.1,0.8-0.1c0.1,0,0.1,0,0.2,0   c0.3,0,0.5,0,0.8,0.1c0.1,0,0.1,0,0.2,0c0.2,0,0.4,0.1,0.7,0.2c0,0,0.1,0,0.1,0c0.2,0.1,0.5,0.2,0.7,0.3c0.1,0,0.1,0.1,0.2,0.1   c0.2,0.1,0.5,0.3,0.7,0.4c1.7,1.2,2.6,3.3,2.4,5.4c-0.1,1-0.5,2-1.1,2.9L215,430C214,431.2,212.7,432.1,211.1,432.3z M347,354.4   L347,354.4c-0.2,2.2-1,4.3-2.3,6.1c-1.1,1.5-2.6,2.4-4.4,2.7c-1.8,0.3-3.6-0.1-5-1.2l-7.8-5.6l0,0c0,0,0,0,0,0l-15.3-11   c-3.1-2.3-7.5-1.5-9.8,1.6c-2.3,3.1-1.5,7.5,1.6,9.8l15.3,11c0,0,0,0,0,0c2.7,1.9,4.3,4.8,4.8,8c0.4,3.2-0.5,6.4-2.6,9   c-3.8,4.7-11.2,5.4-16.4,1.7l-1.5-1.1c0,0-0.1-0.1-0.1-0.1l0,0l-18.9-13.6c-3.1-2.3-7.5-1.5-9.8,1.6c-2.3,3.1-1.5,7.5,1.6,9.8   l18.9,13.6c0,0,0,0,0,0l0,0c3.3,2.4,5.1,6.5,4.7,10.7c-0.2,2.1-0.9,4-2.1,5.6c-1.8,2.5-4.5,4.2-7.6,4.7c-3.1,0.5-6.2-0.2-8.7-2.1   l-9.2-6.6c0,0-0.1,0-0.1-0.1L254.4,396c-3.1-2.3-7.5-1.5-9.8,1.6c-2.3,3.1-1.5,7.5,1.6,9.8l17.9,12.9h0l0,0l0,0   c1.5,1.1,2.5,2.8,2.7,4.7c0.2,1.9-0.4,3.8-1.6,5.3c-2.1,2.4-5.9,2.9-8.9,1.1L238,420.8c0,0,0,0,0,0c0.1-0.2,0.2-0.5,0.2-0.7   c0.1-0.2,0.1-0.4,0.2-0.5c0.1-0.2,0.1-0.5,0.2-0.7c0-0.2,0.1-0.3,0.1-0.5c0.1-0.3,0.1-0.6,0.2-0.8c0-0.2,0.1-0.3,0.1-0.5   c0.1-0.4,0.1-0.9,0.2-1.3c0.7-7.1-2.4-14-8.2-18.2c-0.5-0.4-1-0.7-1.5-1c-0.2-0.1-0.3-0.2-0.5-0.3c-0.4-0.2-0.7-0.4-1.1-0.6   c-0.2-0.1-0.4-0.2-0.6-0.3c-0.3-0.1-0.7-0.3-1.1-0.4c-0.2-0.1-0.4-0.2-0.7-0.2c-0.1,0-0.3-0.1-0.4-0.1c0,0,0-0.1,0-0.1   c0.1-0.2,0.2-0.5,0.3-0.8c0.1-0.2,0.1-0.3,0.2-0.5c0.1-0.3,0.2-0.5,0.2-0.8c0-0.2,0.1-0.3,0.1-0.5c0.1-0.3,0.1-0.6,0.2-0.9   c0-0.1,0.1-0.3,0.1-0.4c0.1-0.4,0.1-0.9,0.2-1.3v0c0.7-6.6-2-13.1-7.1-17.3c-0.3-0.3-0.7-0.6-1-0.8c-0.5-0.4-1.1-0.7-1.6-1   c-0.2-0.1-0.3-0.2-0.5-0.3c-0.4-0.2-0.8-0.4-1.2-0.6c-0.2-0.1-0.4-0.2-0.5-0.2c-0.4-0.2-0.8-0.3-1.3-0.5c-0.2-0.1-0.3-0.1-0.5-0.2   c-0.5-0.1-0.9-0.3-1.4-0.4c-0.1,0-0.3-0.1-0.4-0.1c-0.5-0.1-1-0.2-1.5-0.3c-0.1,0-0.2,0-0.3,0c-0.5-0.1-1.1-0.1-1.6-0.1   c-0.1,0-0.2,0-0.2,0c-0.6,0-1.2,0-1.7,0c0,0-0.1,0-0.1,0c-0.1,0-0.2,0-0.3,0c0-0.1-0.1-0.2-0.1-0.3c-0.1-0.4-0.2-0.8-0.3-1.2   c0-0.2-0.1-0.3-0.2-0.5c-0.1-0.4-0.3-0.8-0.5-1.2c0-0.1-0.1-0.2-0.1-0.2c-0.2-0.5-0.4-0.9-0.7-1.4c-0.1-0.1-0.1-0.2-0.2-0.4   c-0.2-0.3-0.4-0.7-0.6-1c-0.1-0.1-0.2-0.3-0.3-0.4c-0.3-0.4-0.5-0.8-0.8-1.1c0,0-0.1-0.1-0.1-0.1c-0.3-0.4-0.7-0.8-1-1.2   c-0.1-0.1-0.2-0.2-0.3-0.3c-0.3-0.3-0.6-0.6-0.9-0.8c-0.1-0.1-0.2-0.2-0.4-0.3c-0.4-0.3-0.8-0.7-1.3-1c-4.3-3.1-9.6-4.4-14.8-3.5   c-0.6,0.1-1.2,0.2-1.7,0.4c-0.1,0-0.3,0.1-0.4,0.1c-0.5,0.1-1,0.3-1.5,0.5c-0.1,0-0.1,0-0.2,0.1c-0.5,0.2-1.1,0.4-1.6,0.7   c-0.1,0.1-0.3,0.1-0.4,0.2c-0.4,0.2-0.9,0.5-1.3,0.7c-0.1,0-0.2,0.1-0.2,0.1c-0.5,0.3-1,0.6-1.4,1c-0.1,0.1-0.2,0.2-0.3,0.3   c-0.2,0.1-0.3,0.3-0.5,0.4c0,0,0,0,0,0c-0.3-0.4-0.6-0.8-0.9-1.2c-0.1-0.1-0.2-0.2-0.3-0.3c-0.2-0.3-0.5-0.6-0.7-0.8   c-0.1-0.1-0.2-0.2-0.4-0.4c-0.3-0.3-0.5-0.5-0.8-0.7c-0.1-0.1-0.2-0.2-0.4-0.3c-0.4-0.3-0.8-0.6-1.2-0.9c-4.3-3.1-9.6-4.4-14.8-3.5   c-0.6,0.1-1.2,0.2-1.7,0.4c-0.1,0-0.3,0.1-0.4,0.1c-0.6,0.2-1.1,0.3-1.7,0.5c0,0-0.1,0-0.1,0c-0.4,0.1-0.7,0.3-1.1,0.4   c-5.9-14.5-14.8-27.1-26-36.8l47.5-65.9c9.4,5.6,19.9,9.5,31.1,11.5l-6,59.1c-0.9,8.9,5.6,16.8,14.4,17.7   c8.3,0.8,16.3-1.6,22.7-6.8c6.4-5.2,10.4-12.7,11.3-20.9l1.6-15.5c8.1-0.3,16-2.7,23-6.8l74.1,57.2c0.5,0.4,0.8,0.7,1,0.9l0.1,0.1   c0.1,0.1,0.3,0.3,0.4,0.4l0.2,0.2c0.1,0.1,0.1,0.2,0.2,0.2l0.2,0.2c0.1,0.1,0.2,0.2,0.3,0.3l0.6,0.9c0.3,0.4,0.5,0.8,0.6,1.1   l0.1,0.2c0.1,0.2,0.1,0.3,0.2,0.5c0.1,0.2,0.2,0.4,0.2,0.6c0.1,0.2,0.1,0.4,0.2,0.6l0.2,0.6c0.1,0.5,0.2,1,0.3,1.4l0,0.2   c0,0.2,0,0.4,0.1,0.6c0,0,0,0.1,0,0.1l0,0l0,0.5C347.1,353.3,347.1,353.9,347,354.4z M356.1,337.5l-0.1-0.2   c-0.1-0.1-0.1-0.1-0.2-0.2c-0.2-0.3-0.4-0.5-0.6-0.7c0,0,0,0,0,0c0,0,0,0-0.1-0.1c-0.1-0.1-0.2-0.2-0.3-0.4   c-0.1-0.1-0.1-0.1-0.2-0.2c-0.1-0.2-0.3-0.3-0.4-0.5c0,0-0.1-0.1-0.1-0.1c-0.2-0.2-0.3-0.3-0.5-0.5c-0.2-0.2-0.3-0.4-0.5-0.5   c-0.7-0.7-1.4-1.3-2.4-2.1l-82.4-63.6l-4.3,3.2c-7.1,5.3-15.8,7.8-24.7,6.9l-7-0.7l-2.9,28.9c-0.5,4.5-2.7,8.6-6.2,11.5   c-3.5,2.9-8,4.2-12.5,3.7c-1.2-0.1-2-1.2-1.9-2.3l5-49.1l35.8-17.6l0,0l9.9-4.9l0.6-0.3c2.6-1.6,5.1-2.9,7.6-4   c5.4-2.4,11.1-4.2,16.8-5.1c7.2-1.2,14.6-1.2,21.9,0c16.2,2.7,32.3,1.4,46.9-3.5l33.3,74.1C374.9,316,364.4,325.6,356.1,337.5z"/>
<path class="st0" d="M411.1,302.2c0.4,0,0.7,0.1,1.1,0.1c2.4,0,4.7-0.8,6.5-2.3c2.1-1.8,3.5-4.2,3.8-7c0.6-5.7-3.6-10.8-9.3-11.4   c-5.7-0.6-10.8,3.6-11.4,9.3C401.3,296.6,405.5,301.7,411.1,302.2z M408.8,291.6c0.2-1.7,1.6-3,3.3-3c0.1,0,0.2,0,0.3,0   c0.9,0.1,1.7,0.5,2.3,1.2c0.6,0.7,0.8,1.6,0.7,2.5v0c-0.1,0.9-0.5,1.7-1.2,2.3c-0.7,0.6-1.6,0.8-2.5,0.7   C410,295.1,408.7,293.4,408.8,291.6z"/>
<path class="st0" d="M110.3,291.2c0.6-5.7-3.6-10.8-9.3-11.4c-5.7-0.6-10.8,3.6-11.4,9.3c-0.3,2.8,0.5,5.5,2.3,7.6   c1.8,2.1,4.2,3.5,7,3.8c0.4,0,0.7,0.1,1.1,0.1C105.3,300.5,109.8,296.6,110.3,291.2z M97.4,292.3c-0.6-0.7-0.8-1.6-0.7-2.5   c0.2-1.7,1.6-3,3.3-3c0.1,0,0.2,0,0.3,0c1.8,0.2,3.2,1.8,3,3.7c-0.2,1.8-1.8,3.2-3.7,3C98.8,293.4,98,293,97.4,292.3z"/>
<path class="st0" d="M244.7,180.4c31.7,0,57.5-25.8,57.5-57.5s-25.8-57.5-57.5-57.5s-57.5,25.8-57.5,57.5S213,180.4,244.7,180.4z    M244.7,79.5c24,0,43.5,19.5,43.5,43.5s-19.5,43.5-43.5,43.5S201.2,147,201.2,123S220.7,79.5,244.7,79.5z"/>
<path class="st0" d="M234,138.5c1,1.1,2.3,2,3.8,2.7c1.5,0.7,3.3,1.2,5.3,1.4v2.6c0,0.8,0.1,1.4,0.4,1.8c0.3,0.4,0.7,0.6,1.3,0.6   c0.7,0,1.1-0.2,1.3-0.7c0.2-0.5,0.3-1.2,0.3-2.2v-2c2.5-0.2,4.6-0.9,6.4-2c1.8-1.1,3.2-2.5,4.1-4.2c0.9-1.7,1.4-3.6,1.4-5.6   c0-1.6-0.3-3-0.9-4.4c-0.6-1.3-1.4-2.5-2.5-3.4c-1-0.9-2.2-1.6-3.4-2.1c-1.3-0.5-3-1-5.2-1.6v-10.8c2.2,0.7,3.6,2.2,4.1,4.3   c0.5,1.8,1.6,2.8,3.3,2.8c0.9,0,1.7-0.3,2.3-1s1-1.4,1-2.3c0-0.8-0.2-1.6-0.6-2.6c-0.4-0.9-1-1.9-1.8-2.7c-1-1.2-2.2-2-3.5-2.6   c-1.3-0.6-2.9-1-4.8-1.1v-2.8c0-1.4-0.6-2.1-1.7-2.1c-1.1,0-1.6,0.7-1.6,2.2v2.8c-3.6,0.3-6.3,1.4-8.3,3.3S232,111,232,114   c0,2.3,0.5,4.2,1.5,5.6c1,1.5,2.2,2.6,3.8,3.4c1.6,0.8,3.5,1.5,5.8,2.2v12.1c-1.2-0.3-2.1-0.8-2.8-1.4c-0.7-0.6-1.2-1.3-1.6-2.1   s-0.8-1.8-1.2-3.3c-0.2-0.7-0.6-1.2-1.1-1.5c-0.5-0.4-1.2-0.5-2-0.5c-1,0-1.8,0.3-2.4,1s-1,1.4-1,2.3c0,1.1,0.2,2.3,0.7,3.5   C232.2,136.3,233,137.4,234,138.5z M246.4,126.1c1.8,0.6,3.2,1.3,4.1,2.1c0.9,0.8,1.4,2,1.4,3.5c0,1.4-0.5,2.6-1.4,3.7   c-1,1.1-2.3,1.8-4.1,2.1V126.1z M239.6,116.5c-0.8-0.7-1.1-1.7-1.1-3.1c0-1.4,0.4-2.5,1.2-3.2c0.8-0.7,2-1.3,3.4-1.7v10   C241.6,117.8,240.4,117.2,239.6,116.5z"/>
</g>
</svg>