<?xml version="1.0" encoding="iso-8859-1"?>
<!-- Uploaded to: SVG Repo, www.svgrepo.com, Generator: SVG Repo Mixer Tools -->
<svg fill="#000000" height="800px" width="800px" version="1.1" id="Layer_1" xmlns="http://www.w3.org/2000/svg" xmlns:xlink="http://www.w3.org/1999/xlink" 
	 viewBox="0 0 512 512" xml:space="preserve">
<g>
	<g>
		<g>
			<path d="M437.403,129.686c-1.546-1.546-86.03-86.02-124.209-124.197C309.766,2.058,304.96,0,299.943,0h-212.1
				C77.498,0,69.111,8.387,69.111,18.732v474.537c0,10.345,8.387,18.732,18.732,18.732h336.314c10.345,0,18.732-8.387,18.732-18.732
				V142.932C442.889,138.069,440.834,133.115,437.403,129.686z M318.681,63.956c3.186,3.184,53.915,53.915,60.249,60.247h-60.249
				V63.956z M405.427,474.537H106.575V37.463h174.643v105.472c0,10.345,8.387,18.732,18.732,18.732h105.477V474.537z"/>
			<path d="M268.37,208.002c0-3.646-4.948-7.032-9.897-7.032c-5.729,0-9.897,3.385-9.897,7.032v7.292
				c-27.604,3.906-52.084,19.792-52.084,52.866c0,33.334,28.125,44.533,52.084,53.646v42.189
				c-19.271-3.385-28.125-18.75-39.063-18.75c-9.895,0-17.709,13.021-17.709,21.876c0,16.667,25.523,32.813,56.772,33.854v6.51
				c0,3.646,4.167,7.032,9.897,7.032c4.949,0,9.897-3.385,9.897-7.032v-7.551c30.469-4.948,51.304-24.48,51.304-56.772
				c0-35.157-27.604-47.397-51.304-56.251v-38.022c16.927,1.302,21.876,9.636,30.469,9.636c11.459,0,16.147-14.324,16.147-21.355
				c0-17.969-30.469-22.136-46.616-22.657V208.002z M251.183,280.66c-9.897-4.167-16.667-8.855-16.667-16.406
				c0-6.25,4.948-12.241,16.667-14.583V280.66z M281.652,347.328c0,9.375-7.032,14.322-15.887,16.406v-34.897
				C275.141,333.266,281.652,338.734,281.652,347.328z"/>
			<path d="M251.8,142.935c0-10.345-8.387-18.732-18.732-18.732h-78.345c-10.345,0-18.732,8.387-18.732,18.732
				s8.387,18.732,18.732,18.732h78.345C243.414,161.667,251.8,153.282,251.8,142.935z"/>
		</g>
	</g>
</g>
</svg>