<?xml version="1.0" encoding="utf-8"?><!-- Uploaded to: SVG Repo, www.svgrepo.com, Generator: SVG Repo Mixer Tools -->
<svg width="800px" height="800px" viewBox="0 0 64 64" xmlns="http://www.w3.org/2000/svg" stroke-width="3" stroke="#000000" fill="none"><path d="M24.78,41.94c0-5.63-3.48-10.34-5.35-13.83a13.38,13.38,0,0,1-1.59-6.33c0-7.4,6.76-13.4,14.16-13.4"/><path d="M39.22,41.94c0-5.63,3.48-10.34,5.35-13.83a13.38,13.38,0,0,0,1.59-6.33c0-7.4-6.76-13.4-14.16-13.4"/><rect x="21.96" y="41.63" width="20.62" height="4.62" rx="2.31"/><rect x="23.22" y="46.25" width="18.09" height="4.62" rx="2.31"/><path d="M35.78,50.87v.93a3.52,3.52,0,1,1-7,0v-.93"/><path d="M22.87,21.14a8.19,8.19,0,0,1,8.59-7.75"/></svg>